<mxfile host="app.diagrams.net" agent="Mozilla/5.0 (Macintosh; Intel Mac OS X 10_15_7) AppleWebKit/605.1.15 (KHTML, like Gecko) Version/18.4 Safari/605.1.15" version="26.2.14">
  <diagram name="Page-1" id="OtciX9EST_gxZTKVZwVr">
    <mxGraphModel dx="2719" dy="1304" grid="1" gridSize="10" guides="1" tooltips="1" connect="1" arrows="1" fold="1" page="1" pageScale="1" pageWidth="827" pageHeight="1169" math="0" shadow="0">
      <root>
        <mxCell id="0" />
        <mxCell id="1" parent="0" />
        <mxCell id="njphzuGPGMFV0OTPNxyu-111" value="" style="group" parent="1" vertex="1" connectable="0">
          <mxGeometry x="-431" y="40" width="1689" height="2211" as="geometry" />
        </mxCell>
        <mxCell id="njphzuGPGMFV0OTPNxyu-3" value="开始" style="whiteSpace=wrap;strokeWidth=2;" parent="njphzuGPGMFV0OTPNxyu-111" vertex="1">
          <mxGeometry x="815" width="92" height="54" as="geometry" />
        </mxCell>
        <mxCell id="njphzuGPGMFV0OTPNxyu-4" value="检查依赖库" style="whiteSpace=wrap;strokeWidth=2;" parent="njphzuGPGMFV0OTPNxyu-111" vertex="1">
          <mxGeometry x="791" y="104" width="140" height="54" as="geometry" />
        </mxCell>
        <mxCell id="njphzuGPGMFV0OTPNxyu-5" value="自动安装?" style="rhombus;strokeWidth=2;whiteSpace=wrap;" parent="njphzuGPGMFV0OTPNxyu-111" vertex="1">
          <mxGeometry x="715" y="231" width="124" height="124" as="geometry" />
        </mxCell>
        <mxCell id="njphzuGPGMFV0OTPNxyu-6" value="尝试安装" style="whiteSpace=wrap;strokeWidth=2;" parent="njphzuGPGMFV0OTPNxyu-111" vertex="1">
          <mxGeometry x="804" y="427" width="124" height="54" as="geometry" />
        </mxCell>
        <mxCell id="njphzuGPGMFV0OTPNxyu-7" value="提示手动安装并退出" style="whiteSpace=wrap;strokeWidth=2;" parent="njphzuGPGMFV0OTPNxyu-111" vertex="1">
          <mxGeometry x="640" y="554" width="204" height="54" as="geometry" />
        </mxCell>
        <mxCell id="njphzuGPGMFV0OTPNxyu-8" value="初始化设备配置" style="whiteSpace=wrap;strokeWidth=2;" parent="njphzuGPGMFV0OTPNxyu-111" vertex="1">
          <mxGeometry x="894" y="554" width="172" height="54" as="geometry" />
        </mxCell>
        <mxCell id="njphzuGPGMFV0OTPNxyu-9" value="创建模型保存目录" style="whiteSpace=wrap;strokeWidth=2;" parent="njphzuGPGMFV0OTPNxyu-111" vertex="1">
          <mxGeometry x="886" y="658" width="188" height="54" as="geometry" />
        </mxCell>
        <mxCell id="njphzuGPGMFV0OTPNxyu-10" value="显示主菜单" style="whiteSpace=wrap;strokeWidth=2;" parent="njphzuGPGMFV0OTPNxyu-111" vertex="1">
          <mxGeometry x="910" y="762" width="140" height="54" as="geometry" />
        </mxCell>
        <mxCell id="njphzuGPGMFV0OTPNxyu-11" value="选择操作" style="rhombus;strokeWidth=2;whiteSpace=wrap;" parent="njphzuGPGMFV0OTPNxyu-111" vertex="1">
          <mxGeometry x="921" y="866" width="118" height="118" as="geometry" />
        </mxCell>
        <mxCell id="njphzuGPGMFV0OTPNxyu-12" value="加载数据模块" style="whiteSpace=wrap;strokeWidth=2;" parent="njphzuGPGMFV0OTPNxyu-111" vertex="1">
          <mxGeometry x="204" y="1038" width="156" height="54" as="geometry" />
        </mxCell>
        <mxCell id="njphzuGPGMFV0OTPNxyu-13" value="使用默认路径?" style="whiteSpace=wrap;strokeWidth=2;" parent="njphzuGPGMFV0OTPNxyu-111" vertex="1">
          <mxGeometry x="201" y="1142" width="162" height="54" as="geometry" />
        </mxCell>
        <mxCell id="njphzuGPGMFV0OTPNxyu-14" value="读取默认Excel" style="whiteSpace=wrap;strokeWidth=2;" parent="njphzuGPGMFV0OTPNxyu-111" vertex="1">
          <mxGeometry y="1303" width="162" height="54" as="geometry" />
        </mxCell>
        <mxCell id="njphzuGPGMFV0OTPNxyu-15" value="输入新路径" style="whiteSpace=wrap;strokeWidth=2;" parent="njphzuGPGMFV0OTPNxyu-111" vertex="1">
          <mxGeometry x="212" y="1303" width="140" height="54" as="geometry" />
        </mxCell>
        <mxCell id="njphzuGPGMFV0OTPNxyu-16" value="验证路径有效性" style="whiteSpace=wrap;strokeWidth=2;" parent="njphzuGPGMFV0OTPNxyu-111" vertex="1">
          <mxGeometry x="196" y="1465" width="172" height="54" as="geometry" />
        </mxCell>
        <mxCell id="njphzuGPGMFV0OTPNxyu-17" value="加载数据" style="whiteSpace=wrap;strokeWidth=2;" parent="njphzuGPGMFV0OTPNxyu-111" vertex="1">
          <mxGeometry x="133" y="1591" width="124" height="54" as="geometry" />
        </mxCell>
        <mxCell id="njphzuGPGMFV0OTPNxyu-18" value="显示错误" style="whiteSpace=wrap;strokeWidth=2;" parent="njphzuGPGMFV0OTPNxyu-111" vertex="1">
          <mxGeometry x="307" y="1591" width="124" height="54" as="geometry" />
        </mxCell>
        <mxCell id="njphzuGPGMFV0OTPNxyu-19" value="显示数据预览和统计" style="whiteSpace=wrap;strokeWidth=2;" parent="njphzuGPGMFV0OTPNxyu-111" vertex="1">
          <mxGeometry x="93" y="1718" width="204" height="54" as="geometry" />
        </mxCell>
        <mxCell id="njphzuGPGMFV0OTPNxyu-20" value="返回主菜单" style="whiteSpace=wrap;strokeWidth=2;" parent="njphzuGPGMFV0OTPNxyu-111" vertex="1">
          <mxGeometry x="125" y="1822" width="140" height="54" as="geometry" />
        </mxCell>
        <mxCell id="njphzuGPGMFV0OTPNxyu-21" value="BP训练模块" style="whiteSpace=wrap;strokeWidth=2;" parent="njphzuGPGMFV0OTPNxyu-111" vertex="1">
          <mxGeometry x="560" y="1038" width="142" height="54" as="geometry" />
        </mxCell>
        <mxCell id="njphzuGPGMFV0OTPNxyu-22" value="显示默认参数" style="whiteSpace=wrap;strokeWidth=2;" parent="njphzuGPGMFV0OTPNxyu-111" vertex="1">
          <mxGeometry x="553" y="1142" width="156" height="54" as="geometry" />
        </mxCell>
        <mxCell id="njphzuGPGMFV0OTPNxyu-23" value="调整参数?" style="rhombus;strokeWidth=2;whiteSpace=wrap;" parent="njphzuGPGMFV0OTPNxyu-111" vertex="1">
          <mxGeometry x="569" y="1268" width="124" height="124" as="geometry" />
        </mxCell>
        <mxCell id="njphzuGPGMFV0OTPNxyu-24" value="接收新参数" style="whiteSpace=wrap;strokeWidth=2;" parent="njphzuGPGMFV0OTPNxyu-111" vertex="1">
          <mxGeometry x="589" y="1465" width="140" height="54" as="geometry" />
        </mxCell>
        <mxCell id="njphzuGPGMFV0OTPNxyu-25" value="使用默认参数" style="whiteSpace=wrap;strokeWidth=2;" parent="njphzuGPGMFV0OTPNxyu-111" vertex="1">
          <mxGeometry x="419" y="1718" width="156" height="54" as="geometry" />
        </mxCell>
        <mxCell id="njphzuGPGMFV0OTPNxyu-26" value="参数验证" style="whiteSpace=wrap;strokeWidth=2;" parent="njphzuGPGMFV0OTPNxyu-111" vertex="1">
          <mxGeometry x="597" y="1591" width="124" height="54" as="geometry" />
        </mxCell>
        <mxCell id="njphzuGPGMFV0OTPNxyu-27" value="加载数据" style="whiteSpace=wrap;strokeWidth=2;" parent="njphzuGPGMFV0OTPNxyu-111" vertex="1">
          <mxGeometry x="625" y="1718" width="124" height="54" as="geometry" />
        </mxCell>
        <mxCell id="njphzuGPGMFV0OTPNxyu-28" value="初始化模型" style="whiteSpace=wrap;strokeWidth=2;" parent="njphzuGPGMFV0OTPNxyu-111" vertex="1">
          <mxGeometry x="617" y="1822" width="140" height="54" as="geometry" />
        </mxCell>
        <mxCell id="njphzuGPGMFV0OTPNxyu-29" value="训练循环" style="whiteSpace=wrap;strokeWidth=2;" parent="njphzuGPGMFV0OTPNxyu-111" vertex="1">
          <mxGeometry x="625" y="1926" width="124" height="54" as="geometry" />
        </mxCell>
        <mxCell id="njphzuGPGMFV0OTPNxyu-30" value="保存模型" style="whiteSpace=wrap;strokeWidth=2;" parent="njphzuGPGMFV0OTPNxyu-111" vertex="1">
          <mxGeometry x="625" y="2053" width="124" height="54" as="geometry" />
        </mxCell>
        <mxCell id="njphzuGPGMFV0OTPNxyu-31" value="返回主菜单" style="whiteSpace=wrap;strokeWidth=2;" parent="njphzuGPGMFV0OTPNxyu-111" vertex="1">
          <mxGeometry x="617" y="2157" width="140" height="54" as="geometry" />
        </mxCell>
        <mxCell id="njphzuGPGMFV0OTPNxyu-32" value="LSTM训练模块" style="whiteSpace=wrap;strokeWidth=2;" parent="njphzuGPGMFV0OTPNxyu-111" vertex="1">
          <mxGeometry x="947" y="1038" width="160" height="54" as="geometry" />
        </mxCell>
        <mxCell id="njphzuGPGMFV0OTPNxyu-33" value="显示当前配置" style="whiteSpace=wrap;strokeWidth=2;" parent="njphzuGPGMFV0OTPNxyu-111" vertex="1">
          <mxGeometry x="949" y="1142" width="156" height="54" as="geometry" />
        </mxCell>
        <mxCell id="njphzuGPGMFV0OTPNxyu-34" value="调整参数?" style="rhombus;strokeWidth=2;whiteSpace=wrap;" parent="njphzuGPGMFV0OTPNxyu-111" vertex="1">
          <mxGeometry x="965" y="1268" width="124" height="124" as="geometry" />
        </mxCell>
        <mxCell id="njphzuGPGMFV0OTPNxyu-35" value="逐项参数调整" style="whiteSpace=wrap;strokeWidth=2;" parent="njphzuGPGMFV0OTPNxyu-111" vertex="1">
          <mxGeometry x="977" y="1465" width="156" height="54" as="geometry" />
        </mxCell>
        <mxCell id="njphzuGPGMFV0OTPNxyu-36" value="使用默认配置" style="whiteSpace=wrap;strokeWidth=2;" parent="njphzuGPGMFV0OTPNxyu-111" vertex="1">
          <mxGeometry x="799" y="1718" width="156" height="54" as="geometry" />
        </mxCell>
        <mxCell id="njphzuGPGMFV0OTPNxyu-37" value="参数有效性验证" style="whiteSpace=wrap;strokeWidth=2;" parent="njphzuGPGMFV0OTPNxyu-111" vertex="1">
          <mxGeometry x="969" y="1591" width="172" height="54" as="geometry" />
        </mxCell>
        <mxCell id="njphzuGPGMFV0OTPNxyu-38" value="确认开始训练" style="whiteSpace=wrap;strokeWidth=2;" parent="njphzuGPGMFV0OTPNxyu-111" vertex="1">
          <mxGeometry x="1005" y="1718" width="156" height="54" as="geometry" />
        </mxCell>
        <mxCell id="njphzuGPGMFV0OTPNxyu-39" value="调用train_model" style="whiteSpace=wrap;strokeWidth=2;" parent="njphzuGPGMFV0OTPNxyu-111" vertex="1">
          <mxGeometry x="994" y="1822" width="179" height="54" as="geometry" />
        </mxCell>
        <mxCell id="njphzuGPGMFV0OTPNxyu-40" value="保存最佳模型" style="whiteSpace=wrap;strokeWidth=2;" parent="njphzuGPGMFV0OTPNxyu-111" vertex="1">
          <mxGeometry x="1005" y="1926" width="156" height="54" as="geometry" />
        </mxCell>
        <mxCell id="njphzuGPGMFV0OTPNxyu-41" value="返回主菜单" style="whiteSpace=wrap;strokeWidth=2;" parent="njphzuGPGMFV0OTPNxyu-111" vertex="1">
          <mxGeometry x="1013" y="2053" width="140" height="54" as="geometry" />
        </mxCell>
        <mxCell id="njphzuGPGMFV0OTPNxyu-42" value="PSO优化模块" style="whiteSpace=wrap;strokeWidth=2;" parent="njphzuGPGMFV0OTPNxyu-111" vertex="1">
          <mxGeometry x="1361" y="1038" width="151" height="54" as="geometry" />
        </mxCell>
        <mxCell id="njphzuGPGMFV0OTPNxyu-43" value="显示默认参数范围" style="whiteSpace=wrap;strokeWidth=2;" parent="njphzuGPGMFV0OTPNxyu-111" vertex="1">
          <mxGeometry x="1343" y="1142" width="188" height="54" as="geometry" />
        </mxCell>
        <mxCell id="njphzuGPGMFV0OTPNxyu-44" value="调整范围?" style="rhombus;strokeWidth=2;whiteSpace=wrap;" parent="njphzuGPGMFV0OTPNxyu-111" vertex="1">
          <mxGeometry x="1375" y="1268" width="124" height="124" as="geometry" />
        </mxCell>
        <mxCell id="njphzuGPGMFV0OTPNxyu-45" value="逐参数范围调整" style="whiteSpace=wrap;strokeWidth=2;" parent="njphzuGPGMFV0OTPNxyu-111" vertex="1">
          <mxGeometry x="1379" y="1465" width="172" height="54" as="geometry" />
        </mxCell>
        <mxCell id="njphzuGPGMFV0OTPNxyu-46" value="使用默认范围" style="whiteSpace=wrap;strokeWidth=2;" parent="njphzuGPGMFV0OTPNxyu-111" vertex="1">
          <mxGeometry x="1211" y="1718" width="156" height="54" as="geometry" />
        </mxCell>
        <mxCell id="njphzuGPGMFV0OTPNxyu-47" value="范围有效性验证" style="whiteSpace=wrap;strokeWidth=2;" parent="njphzuGPGMFV0OTPNxyu-111" vertex="1">
          <mxGeometry x="1379" y="1591" width="172" height="54" as="geometry" />
        </mxCell>
        <mxCell id="njphzuGPGMFV0OTPNxyu-48" value="运行PSO优化" style="whiteSpace=wrap;strokeWidth=2;" parent="njphzuGPGMFV0OTPNxyu-111" vertex="1">
          <mxGeometry x="1417" y="1718" width="151" height="54" as="geometry" />
        </mxCell>
        <mxCell id="njphzuGPGMFV0OTPNxyu-49" value="显示最优参数" style="whiteSpace=wrap;strokeWidth=2;" parent="njphzuGPGMFV0OTPNxyu-111" vertex="1">
          <mxGeometry x="1415" y="1822" width="156" height="54" as="geometry" />
        </mxCell>
        <mxCell id="njphzuGPGMFV0OTPNxyu-50" value="保存结果?" style="whiteSpace=wrap;strokeWidth=2;" parent="njphzuGPGMFV0OTPNxyu-111" vertex="1">
          <mxGeometry x="1428" y="1926" width="130" height="54" as="geometry" />
        </mxCell>
        <mxCell id="njphzuGPGMFV0OTPNxyu-51" value="保存到Excel" style="whiteSpace=wrap;strokeWidth=2;" parent="njphzuGPGMFV0OTPNxyu-111" vertex="1">
          <mxGeometry x="1311" y="2053" width="146" height="54" as="geometry" />
        </mxCell>
        <mxCell id="njphzuGPGMFV0OTPNxyu-52" value="返回主菜单" style="whiteSpace=wrap;strokeWidth=2;" parent="njphzuGPGMFV0OTPNxyu-111" vertex="1">
          <mxGeometry x="1519" y="2053" width="140" height="54" as="geometry" />
        </mxCell>
        <mxCell id="njphzuGPGMFV0OTPNxyu-53" value="退出系统" style="whiteSpace=wrap;strokeWidth=2;" parent="njphzuGPGMFV0OTPNxyu-111" vertex="1">
          <mxGeometry x="1565" y="1038" width="124" height="54" as="geometry" />
        </mxCell>
        <mxCell id="njphzuGPGMFV0OTPNxyu-54" value="结束" style="whiteSpace=wrap;strokeWidth=2;" parent="njphzuGPGMFV0OTPNxyu-111" vertex="1">
          <mxGeometry x="1581" y="1142" width="92" height="54" as="geometry" />
        </mxCell>
        <mxCell id="njphzuGPGMFV0OTPNxyu-55" value="" style="curved=1;startArrow=none;endArrow=block;exitX=0.5;exitY=1;entryX=0.5;entryY=0;rounded=0;" parent="njphzuGPGMFV0OTPNxyu-111" source="njphzuGPGMFV0OTPNxyu-3" target="njphzuGPGMFV0OTPNxyu-4" edge="1">
          <mxGeometry relative="1" as="geometry">
            <Array as="points" />
          </mxGeometry>
        </mxCell>
        <mxCell id="njphzuGPGMFV0OTPNxyu-56" value="缺失依赖" style="curved=1;startArrow=none;endArrow=block;exitX=0.24;exitY=1;entryX=0.5;entryY=0;rounded=0;" parent="njphzuGPGMFV0OTPNxyu-111" source="njphzuGPGMFV0OTPNxyu-4" target="njphzuGPGMFV0OTPNxyu-5" edge="1">
          <mxGeometry relative="1" as="geometry">
            <Array as="points">
              <mxPoint x="776" y="194" />
            </Array>
          </mxGeometry>
        </mxCell>
        <mxCell id="njphzuGPGMFV0OTPNxyu-57" value="是" style="curved=1;startArrow=none;endArrow=block;exitX=0.95;exitY=1;entryX=0.5;entryY=0;rounded=0;" parent="njphzuGPGMFV0OTPNxyu-111" source="njphzuGPGMFV0OTPNxyu-5" target="njphzuGPGMFV0OTPNxyu-6" edge="1">
          <mxGeometry relative="1" as="geometry">
            <Array as="points">
              <mxPoint x="866" y="391" />
            </Array>
          </mxGeometry>
        </mxCell>
        <mxCell id="njphzuGPGMFV0OTPNxyu-58" value="否" style="curved=1;startArrow=none;endArrow=block;exitX=0.22;exitY=1;entryX=0.46;entryY=-0.01;rounded=0;" parent="njphzuGPGMFV0OTPNxyu-111" source="njphzuGPGMFV0OTPNxyu-5" target="njphzuGPGMFV0OTPNxyu-7" edge="1">
          <mxGeometry relative="1" as="geometry">
            <Array as="points">
              <mxPoint x="723" y="391" />
              <mxPoint x="723" y="517" />
            </Array>
          </mxGeometry>
        </mxCell>
        <mxCell id="njphzuGPGMFV0OTPNxyu-59" value="成功" style="curved=1;startArrow=none;endArrow=block;exitX=0.6;exitY=1;entryX=0.29;entryY=-0.01;rounded=0;" parent="njphzuGPGMFV0OTPNxyu-111" source="njphzuGPGMFV0OTPNxyu-6" target="njphzuGPGMFV0OTPNxyu-8" edge="1">
          <mxGeometry relative="1" as="geometry">
            <Array as="points">
              <mxPoint x="895" y="517" />
            </Array>
          </mxGeometry>
        </mxCell>
        <mxCell id="njphzuGPGMFV0OTPNxyu-60" value="失败" style="curved=1;startArrow=none;endArrow=block;exitX=0.38;exitY=1;entryX=0.69;entryY=-0.01;rounded=0;" parent="njphzuGPGMFV0OTPNxyu-111" source="njphzuGPGMFV0OTPNxyu-6" target="njphzuGPGMFV0OTPNxyu-7" edge="1">
          <mxGeometry relative="1" as="geometry">
            <Array as="points">
              <mxPoint x="831" y="517" />
            </Array>
          </mxGeometry>
        </mxCell>
        <mxCell id="njphzuGPGMFV0OTPNxyu-61" value="无缺失" style="curved=1;startArrow=none;endArrow=block;exitX=0.92;exitY=1;entryX=0.55;entryY=-0.01;rounded=0;" parent="njphzuGPGMFV0OTPNxyu-111" source="njphzuGPGMFV0OTPNxyu-4" target="njphzuGPGMFV0OTPNxyu-8" edge="1">
          <mxGeometry relative="1" as="geometry">
            <Array as="points">
              <mxPoint x="999" y="194" />
              <mxPoint x="999" y="517" />
            </Array>
          </mxGeometry>
        </mxCell>
        <mxCell id="njphzuGPGMFV0OTPNxyu-62" value="" style="curved=1;startArrow=none;endArrow=block;exitX=0.5;exitY=0.99;entryX=0.5;entryY=-0.01;rounded=0;" parent="njphzuGPGMFV0OTPNxyu-111" source="njphzuGPGMFV0OTPNxyu-8" target="njphzuGPGMFV0OTPNxyu-9" edge="1">
          <mxGeometry relative="1" as="geometry">
            <Array as="points" />
          </mxGeometry>
        </mxCell>
        <mxCell id="njphzuGPGMFV0OTPNxyu-63" value="" style="curved=1;startArrow=none;endArrow=block;exitX=0.5;exitY=0.99;entryX=0.5;entryY=-0.01;rounded=0;" parent="njphzuGPGMFV0OTPNxyu-111" source="njphzuGPGMFV0OTPNxyu-9" target="njphzuGPGMFV0OTPNxyu-10" edge="1">
          <mxGeometry relative="1" as="geometry">
            <Array as="points" />
          </mxGeometry>
        </mxCell>
        <mxCell id="njphzuGPGMFV0OTPNxyu-64" value="" style="curved=1;startArrow=none;endArrow=block;exitX=0.5;exitY=0.99;entryX=0.5;entryY=0;rounded=0;" parent="njphzuGPGMFV0OTPNxyu-111" source="njphzuGPGMFV0OTPNxyu-10" target="njphzuGPGMFV0OTPNxyu-11" edge="1">
          <mxGeometry relative="1" as="geometry">
            <Array as="points" />
          </mxGeometry>
        </mxCell>
        <mxCell id="njphzuGPGMFV0OTPNxyu-65" value="1. 数据加载" style="curved=1;startArrow=none;endArrow=block;exitX=0;exitY=0.56;entryX=0.5;entryY=-0.01;rounded=0;" parent="njphzuGPGMFV0OTPNxyu-111" source="njphzuGPGMFV0OTPNxyu-11" target="njphzuGPGMFV0OTPNxyu-12" edge="1">
          <mxGeometry relative="1" as="geometry">
            <Array as="points">
              <mxPoint x="282" y="1011" />
            </Array>
          </mxGeometry>
        </mxCell>
        <mxCell id="njphzuGPGMFV0OTPNxyu-66" value="" style="curved=1;startArrow=none;endArrow=block;exitX=0.5;exitY=0.99;entryX=0.5;entryY=-0.01;rounded=0;" parent="njphzuGPGMFV0OTPNxyu-111" source="njphzuGPGMFV0OTPNxyu-12" target="njphzuGPGMFV0OTPNxyu-13" edge="1">
          <mxGeometry relative="1" as="geometry">
            <Array as="points" />
          </mxGeometry>
        </mxCell>
        <mxCell id="njphzuGPGMFV0OTPNxyu-67" value="是" style="curved=1;startArrow=none;endArrow=block;exitX=0;exitY=0.97;entryX=0.5;entryY=0;rounded=0;" parent="njphzuGPGMFV0OTPNxyu-111" source="njphzuGPGMFV0OTPNxyu-13" target="njphzuGPGMFV0OTPNxyu-14" edge="1">
          <mxGeometry relative="1" as="geometry">
            <Array as="points">
              <mxPoint x="81" y="1232" />
            </Array>
          </mxGeometry>
        </mxCell>
        <mxCell id="njphzuGPGMFV0OTPNxyu-68" value="否" style="curved=1;startArrow=none;endArrow=block;exitX=0.5;exitY=0.99;entryX=0.5;entryY=0;rounded=0;" parent="njphzuGPGMFV0OTPNxyu-111" source="njphzuGPGMFV0OTPNxyu-13" target="njphzuGPGMFV0OTPNxyu-15" edge="1">
          <mxGeometry relative="1" as="geometry">
            <Array as="points" />
          </mxGeometry>
        </mxCell>
        <mxCell id="njphzuGPGMFV0OTPNxyu-69" value="" style="curved=1;startArrow=none;endArrow=block;exitX=0.5;exitY=1;entryX=0.5;entryY=-0.01;rounded=0;" parent="njphzuGPGMFV0OTPNxyu-111" source="njphzuGPGMFV0OTPNxyu-15" target="njphzuGPGMFV0OTPNxyu-16" edge="1">
          <mxGeometry relative="1" as="geometry">
            <Array as="points" />
          </mxGeometry>
        </mxCell>
        <mxCell id="njphzuGPGMFV0OTPNxyu-70" value="有效" style="curved=1;startArrow=none;endArrow=block;exitX=0.28;exitY=0.99;entryX=0.5;entryY=0.01;rounded=0;" parent="njphzuGPGMFV0OTPNxyu-111" source="njphzuGPGMFV0OTPNxyu-16" target="njphzuGPGMFV0OTPNxyu-17" edge="1">
          <mxGeometry relative="1" as="geometry">
            <Array as="points">
              <mxPoint x="195" y="1555" />
            </Array>
          </mxGeometry>
        </mxCell>
        <mxCell id="njphzuGPGMFV0OTPNxyu-71" value="无效" style="curved=1;startArrow=none;endArrow=block;exitX=0.72;exitY=0.99;entryX=0.5;entryY=0.01;rounded=0;" parent="njphzuGPGMFV0OTPNxyu-111" source="njphzuGPGMFV0OTPNxyu-16" target="njphzuGPGMFV0OTPNxyu-18" edge="1">
          <mxGeometry relative="1" as="geometry">
            <Array as="points">
              <mxPoint x="369" y="1555" />
            </Array>
          </mxGeometry>
        </mxCell>
        <mxCell id="njphzuGPGMFV0OTPNxyu-72" value="" style="curved=1;startArrow=none;endArrow=block;exitX=0.5;exitY=1.01;entryX=0.5;entryY=0;rounded=0;" parent="njphzuGPGMFV0OTPNxyu-111" source="njphzuGPGMFV0OTPNxyu-17" target="njphzuGPGMFV0OTPNxyu-19" edge="1">
          <mxGeometry relative="1" as="geometry">
            <Array as="points" />
          </mxGeometry>
        </mxCell>
        <mxCell id="njphzuGPGMFV0OTPNxyu-73" value="" style="curved=1;startArrow=none;endArrow=block;exitX=0.5;exitY=1;entryX=0.5;entryY=0;rounded=0;" parent="njphzuGPGMFV0OTPNxyu-111" source="njphzuGPGMFV0OTPNxyu-19" target="njphzuGPGMFV0OTPNxyu-20" edge="1">
          <mxGeometry relative="1" as="geometry">
            <Array as="points" />
          </mxGeometry>
        </mxCell>
        <mxCell id="njphzuGPGMFV0OTPNxyu-74" value="2. BP训练" style="curved=1;startArrow=none;endArrow=block;exitX=0;exitY=0.62;entryX=0.5;entryY=-0.01;rounded=0;" parent="njphzuGPGMFV0OTPNxyu-111" source="njphzuGPGMFV0OTPNxyu-11" target="njphzuGPGMFV0OTPNxyu-21" edge="1">
          <mxGeometry relative="1" as="geometry">
            <Array as="points">
              <mxPoint x="631" y="1011" />
            </Array>
          </mxGeometry>
        </mxCell>
        <mxCell id="njphzuGPGMFV0OTPNxyu-75" value="" style="curved=1;startArrow=none;endArrow=block;exitX=0.5;exitY=0.99;entryX=0.5;entryY=-0.01;rounded=0;" parent="njphzuGPGMFV0OTPNxyu-111" source="njphzuGPGMFV0OTPNxyu-21" target="njphzuGPGMFV0OTPNxyu-22" edge="1">
          <mxGeometry relative="1" as="geometry">
            <Array as="points" />
          </mxGeometry>
        </mxCell>
        <mxCell id="njphzuGPGMFV0OTPNxyu-76" value="" style="curved=1;startArrow=none;endArrow=block;exitX=0.5;exitY=0.99;entryX=0.5;entryY=0;rounded=0;" parent="njphzuGPGMFV0OTPNxyu-111" source="njphzuGPGMFV0OTPNxyu-22" target="njphzuGPGMFV0OTPNxyu-23" edge="1">
          <mxGeometry relative="1" as="geometry">
            <Array as="points" />
          </mxGeometry>
        </mxCell>
        <mxCell id="njphzuGPGMFV0OTPNxyu-77" value="是" style="curved=1;startArrow=none;endArrow=block;exitX=0.64;exitY=1;entryX=0.5;entryY=-0.01;rounded=0;" parent="njphzuGPGMFV0OTPNxyu-111" source="njphzuGPGMFV0OTPNxyu-23" target="njphzuGPGMFV0OTPNxyu-24" edge="1">
          <mxGeometry relative="1" as="geometry">
            <Array as="points">
              <mxPoint x="659" y="1428" />
            </Array>
          </mxGeometry>
        </mxCell>
        <mxCell id="njphzuGPGMFV0OTPNxyu-78" value="否" style="curved=1;startArrow=none;endArrow=block;exitX=0;exitY=0.82;entryX=0.45;entryY=0;rounded=0;" parent="njphzuGPGMFV0OTPNxyu-111" source="njphzuGPGMFV0OTPNxyu-23" target="njphzuGPGMFV0OTPNxyu-25" edge="1">
          <mxGeometry relative="1" as="geometry">
            <Array as="points">
              <mxPoint x="478" y="1428" />
              <mxPoint x="478" y="1682" />
            </Array>
          </mxGeometry>
        </mxCell>
        <mxCell id="njphzuGPGMFV0OTPNxyu-79" value="" style="curved=1;startArrow=none;endArrow=block;exitX=0.5;exitY=0.99;entryX=0.5;entryY=0.01;rounded=0;" parent="njphzuGPGMFV0OTPNxyu-111" source="njphzuGPGMFV0OTPNxyu-24" target="njphzuGPGMFV0OTPNxyu-26" edge="1">
          <mxGeometry relative="1" as="geometry">
            <Array as="points" />
          </mxGeometry>
        </mxCell>
        <mxCell id="njphzuGPGMFV0OTPNxyu-80" value="有效" style="curved=1;startArrow=none;endArrow=block;exitX=0.6;exitY=1.01;entryX=0.5;entryY=0;rounded=0;" parent="njphzuGPGMFV0OTPNxyu-111" source="njphzuGPGMFV0OTPNxyu-26" target="njphzuGPGMFV0OTPNxyu-27" edge="1">
          <mxGeometry relative="1" as="geometry">
            <Array as="points">
              <mxPoint x="687" y="1682" />
            </Array>
          </mxGeometry>
        </mxCell>
        <mxCell id="njphzuGPGMFV0OTPNxyu-81" value="无效" style="curved=1;startArrow=none;endArrow=block;exitX=0.17;exitY=1.01;entryX=0.68;entryY=0;rounded=0;" parent="njphzuGPGMFV0OTPNxyu-111" source="njphzuGPGMFV0OTPNxyu-26" target="njphzuGPGMFV0OTPNxyu-25" edge="1">
          <mxGeometry relative="1" as="geometry">
            <Array as="points">
              <mxPoint x="564" y="1682" />
            </Array>
          </mxGeometry>
        </mxCell>
        <mxCell id="njphzuGPGMFV0OTPNxyu-82" value="" style="curved=1;startArrow=none;endArrow=block;exitX=0.5;exitY=1;entryX=0.5;entryY=0;rounded=0;" parent="njphzuGPGMFV0OTPNxyu-111" source="njphzuGPGMFV0OTPNxyu-27" target="njphzuGPGMFV0OTPNxyu-28" edge="1">
          <mxGeometry relative="1" as="geometry">
            <Array as="points" />
          </mxGeometry>
        </mxCell>
        <mxCell id="njphzuGPGMFV0OTPNxyu-83" value="" style="curved=1;startArrow=none;endArrow=block;exitX=0.5;exitY=1;entryX=0.5;entryY=0;rounded=0;" parent="njphzuGPGMFV0OTPNxyu-111" source="njphzuGPGMFV0OTPNxyu-28" target="njphzuGPGMFV0OTPNxyu-29" edge="1">
          <mxGeometry relative="1" as="geometry">
            <Array as="points" />
          </mxGeometry>
        </mxCell>
        <mxCell id="njphzuGPGMFV0OTPNxyu-84" value="" style="curved=1;startArrow=none;endArrow=block;exitX=0.5;exitY=1;entryX=0.5;entryY=-0.01;rounded=0;" parent="njphzuGPGMFV0OTPNxyu-111" source="njphzuGPGMFV0OTPNxyu-29" target="njphzuGPGMFV0OTPNxyu-30" edge="1">
          <mxGeometry relative="1" as="geometry">
            <Array as="points" />
          </mxGeometry>
        </mxCell>
        <mxCell id="njphzuGPGMFV0OTPNxyu-85" value="" style="curved=1;startArrow=none;endArrow=block;exitX=0.5;exitY=0.99;entryX=0.5;entryY=-0.01;rounded=0;" parent="njphzuGPGMFV0OTPNxyu-111" source="njphzuGPGMFV0OTPNxyu-30" target="njphzuGPGMFV0OTPNxyu-31" edge="1">
          <mxGeometry relative="1" as="geometry">
            <Array as="points" />
          </mxGeometry>
        </mxCell>
        <mxCell id="njphzuGPGMFV0OTPNxyu-86" value="3. LSTM训练" style="curved=1;startArrow=none;endArrow=block;exitX=0.77;exitY=1;entryX=0.5;entryY=-0.01;rounded=0;" parent="njphzuGPGMFV0OTPNxyu-111" source="njphzuGPGMFV0OTPNxyu-11" target="njphzuGPGMFV0OTPNxyu-32" edge="1">
          <mxGeometry relative="1" as="geometry">
            <Array as="points">
              <mxPoint x="1027" y="1011" />
            </Array>
          </mxGeometry>
        </mxCell>
        <mxCell id="njphzuGPGMFV0OTPNxyu-87" value="" style="curved=1;startArrow=none;endArrow=block;exitX=0.5;exitY=0.99;entryX=0.5;entryY=-0.01;rounded=0;" parent="njphzuGPGMFV0OTPNxyu-111" source="njphzuGPGMFV0OTPNxyu-32" target="njphzuGPGMFV0OTPNxyu-33" edge="1">
          <mxGeometry relative="1" as="geometry">
            <Array as="points" />
          </mxGeometry>
        </mxCell>
        <mxCell id="njphzuGPGMFV0OTPNxyu-88" value="" style="curved=1;startArrow=none;endArrow=block;exitX=0.5;exitY=0.99;entryX=0.5;entryY=0;rounded=0;" parent="njphzuGPGMFV0OTPNxyu-111" source="njphzuGPGMFV0OTPNxyu-33" target="njphzuGPGMFV0OTPNxyu-34" edge="1">
          <mxGeometry relative="1" as="geometry">
            <Array as="points" />
          </mxGeometry>
        </mxCell>
        <mxCell id="njphzuGPGMFV0OTPNxyu-89" value="是" style="curved=1;startArrow=none;endArrow=block;exitX=0.64;exitY=1;entryX=0.5;entryY=-0.01;rounded=0;" parent="njphzuGPGMFV0OTPNxyu-111" source="njphzuGPGMFV0OTPNxyu-34" target="njphzuGPGMFV0OTPNxyu-35" edge="1">
          <mxGeometry relative="1" as="geometry">
            <Array as="points">
              <mxPoint x="1055" y="1428" />
            </Array>
          </mxGeometry>
        </mxCell>
        <mxCell id="njphzuGPGMFV0OTPNxyu-90" value="否" style="curved=1;startArrow=none;endArrow=block;exitX=0;exitY=0.76;entryX=0.38;entryY=0;rounded=0;" parent="njphzuGPGMFV0OTPNxyu-111" source="njphzuGPGMFV0OTPNxyu-34" target="njphzuGPGMFV0OTPNxyu-36" edge="1">
          <mxGeometry relative="1" as="geometry">
            <Array as="points">
              <mxPoint x="834" y="1428" />
              <mxPoint x="834" y="1682" />
            </Array>
          </mxGeometry>
        </mxCell>
        <mxCell id="njphzuGPGMFV0OTPNxyu-91" value="" style="curved=1;startArrow=none;endArrow=block;exitX=0.5;exitY=0.99;entryX=0.5;entryY=0.01;rounded=0;" parent="njphzuGPGMFV0OTPNxyu-111" source="njphzuGPGMFV0OTPNxyu-35" target="njphzuGPGMFV0OTPNxyu-37" edge="1">
          <mxGeometry relative="1" as="geometry">
            <Array as="points" />
          </mxGeometry>
        </mxCell>
        <mxCell id="njphzuGPGMFV0OTPNxyu-92" value="有效" style="curved=1;startArrow=none;endArrow=block;exitX=0.57;exitY=1.01;entryX=0.5;entryY=0;rounded=0;" parent="njphzuGPGMFV0OTPNxyu-111" source="njphzuGPGMFV0OTPNxyu-37" target="njphzuGPGMFV0OTPNxyu-38" edge="1">
          <mxGeometry relative="1" as="geometry">
            <Array as="points">
              <mxPoint x="1083" y="1682" />
            </Array>
          </mxGeometry>
        </mxCell>
        <mxCell id="njphzuGPGMFV0OTPNxyu-93" value="无效" style="curved=1;startArrow=none;endArrow=block;exitX=0.24;exitY=1.01;entryX=0.7;entryY=0;rounded=0;" parent="njphzuGPGMFV0OTPNxyu-111" source="njphzuGPGMFV0OTPNxyu-37" target="njphzuGPGMFV0OTPNxyu-36" edge="1">
          <mxGeometry relative="1" as="geometry">
            <Array as="points">
              <mxPoint x="952" y="1682" />
            </Array>
          </mxGeometry>
        </mxCell>
        <mxCell id="njphzuGPGMFV0OTPNxyu-94" value="" style="curved=1;startArrow=none;endArrow=block;exitX=0.5;exitY=1;entryX=0.5;entryY=0;rounded=0;" parent="njphzuGPGMFV0OTPNxyu-111" source="njphzuGPGMFV0OTPNxyu-38" target="njphzuGPGMFV0OTPNxyu-39" edge="1">
          <mxGeometry relative="1" as="geometry">
            <Array as="points" />
          </mxGeometry>
        </mxCell>
        <mxCell id="njphzuGPGMFV0OTPNxyu-95" value="" style="curved=1;startArrow=none;endArrow=block;exitX=0.5;exitY=1;entryX=0.5;entryY=0;rounded=0;" parent="njphzuGPGMFV0OTPNxyu-111" source="njphzuGPGMFV0OTPNxyu-39" target="njphzuGPGMFV0OTPNxyu-40" edge="1">
          <mxGeometry relative="1" as="geometry">
            <Array as="points" />
          </mxGeometry>
        </mxCell>
        <mxCell id="njphzuGPGMFV0OTPNxyu-96" value="" style="curved=1;startArrow=none;endArrow=block;exitX=0.5;exitY=1;entryX=0.5;entryY=-0.01;rounded=0;" parent="njphzuGPGMFV0OTPNxyu-111" source="njphzuGPGMFV0OTPNxyu-40" target="njphzuGPGMFV0OTPNxyu-41" edge="1">
          <mxGeometry relative="1" as="geometry">
            <Array as="points" />
          </mxGeometry>
        </mxCell>
        <mxCell id="njphzuGPGMFV0OTPNxyu-97" value="4. PSO优化" style="curved=1;startArrow=none;endArrow=block;exitX=1;exitY=0.59;entryX=0.5;entryY=-0.01;rounded=0;" parent="njphzuGPGMFV0OTPNxyu-111" source="njphzuGPGMFV0OTPNxyu-11" target="njphzuGPGMFV0OTPNxyu-42" edge="1">
          <mxGeometry relative="1" as="geometry">
            <Array as="points">
              <mxPoint x="1437" y="1011" />
            </Array>
          </mxGeometry>
        </mxCell>
        <mxCell id="njphzuGPGMFV0OTPNxyu-98" value="" style="curved=1;startArrow=none;endArrow=block;exitX=0.5;exitY=0.99;entryX=0.5;entryY=-0.01;rounded=0;" parent="njphzuGPGMFV0OTPNxyu-111" source="njphzuGPGMFV0OTPNxyu-42" target="njphzuGPGMFV0OTPNxyu-43" edge="1">
          <mxGeometry relative="1" as="geometry">
            <Array as="points" />
          </mxGeometry>
        </mxCell>
        <mxCell id="njphzuGPGMFV0OTPNxyu-99" value="" style="curved=1;startArrow=none;endArrow=block;exitX=0.5;exitY=0.99;entryX=0.5;entryY=0;rounded=0;" parent="njphzuGPGMFV0OTPNxyu-111" source="njphzuGPGMFV0OTPNxyu-43" target="njphzuGPGMFV0OTPNxyu-44" edge="1">
          <mxGeometry relative="1" as="geometry">
            <Array as="points" />
          </mxGeometry>
        </mxCell>
        <mxCell id="njphzuGPGMFV0OTPNxyu-100" value="是" style="curved=1;startArrow=none;endArrow=block;exitX=0.64;exitY=1;entryX=0.5;entryY=-0.01;rounded=0;" parent="njphzuGPGMFV0OTPNxyu-111" source="njphzuGPGMFV0OTPNxyu-44" target="njphzuGPGMFV0OTPNxyu-45" edge="1">
          <mxGeometry relative="1" as="geometry">
            <Array as="points">
              <mxPoint x="1465" y="1428" />
            </Array>
          </mxGeometry>
        </mxCell>
        <mxCell id="njphzuGPGMFV0OTPNxyu-101" value="否" style="curved=1;startArrow=none;endArrow=block;exitX=0;exitY=0.76;entryX=0.38;entryY=0;rounded=0;" parent="njphzuGPGMFV0OTPNxyu-111" source="njphzuGPGMFV0OTPNxyu-44" target="njphzuGPGMFV0OTPNxyu-46" edge="1">
          <mxGeometry relative="1" as="geometry">
            <Array as="points">
              <mxPoint x="1246" y="1428" />
              <mxPoint x="1246" y="1682" />
            </Array>
          </mxGeometry>
        </mxCell>
        <mxCell id="njphzuGPGMFV0OTPNxyu-102" value="" style="curved=1;startArrow=none;endArrow=block;exitX=0.5;exitY=0.99;entryX=0.5;entryY=0.01;rounded=0;" parent="njphzuGPGMFV0OTPNxyu-111" source="njphzuGPGMFV0OTPNxyu-45" target="njphzuGPGMFV0OTPNxyu-47" edge="1">
          <mxGeometry relative="1" as="geometry">
            <Array as="points" />
          </mxGeometry>
        </mxCell>
        <mxCell id="njphzuGPGMFV0OTPNxyu-103" value="有效" style="curved=1;startArrow=none;endArrow=block;exitX=0.57;exitY=1.01;entryX=0.5;entryY=0;rounded=0;" parent="njphzuGPGMFV0OTPNxyu-111" source="njphzuGPGMFV0OTPNxyu-47" target="njphzuGPGMFV0OTPNxyu-48" edge="1">
          <mxGeometry relative="1" as="geometry">
            <Array as="points">
              <mxPoint x="1493" y="1682" />
            </Array>
          </mxGeometry>
        </mxCell>
        <mxCell id="njphzuGPGMFV0OTPNxyu-104" value="无效" style="curved=1;startArrow=none;endArrow=block;exitX=0.25;exitY=1.01;entryX=0.7;entryY=0;rounded=0;" parent="njphzuGPGMFV0OTPNxyu-111" source="njphzuGPGMFV0OTPNxyu-47" target="njphzuGPGMFV0OTPNxyu-46" edge="1">
          <mxGeometry relative="1" as="geometry">
            <Array as="points">
              <mxPoint x="1363" y="1682" />
            </Array>
          </mxGeometry>
        </mxCell>
        <mxCell id="njphzuGPGMFV0OTPNxyu-105" value="" style="curved=1;startArrow=none;endArrow=block;exitX=0.5;exitY=1;entryX=0.5;entryY=0;rounded=0;" parent="njphzuGPGMFV0OTPNxyu-111" source="njphzuGPGMFV0OTPNxyu-48" target="njphzuGPGMFV0OTPNxyu-49" edge="1">
          <mxGeometry relative="1" as="geometry">
            <Array as="points" />
          </mxGeometry>
        </mxCell>
        <mxCell id="njphzuGPGMFV0OTPNxyu-106" value="" style="curved=1;startArrow=none;endArrow=block;exitX=0.5;exitY=1;entryX=0.5;entryY=0;rounded=0;" parent="njphzuGPGMFV0OTPNxyu-111" source="njphzuGPGMFV0OTPNxyu-49" target="njphzuGPGMFV0OTPNxyu-50" edge="1">
          <mxGeometry relative="1" as="geometry">
            <Array as="points" />
          </mxGeometry>
        </mxCell>
        <mxCell id="njphzuGPGMFV0OTPNxyu-107" value="是" style="curved=1;startArrow=none;endArrow=block;exitX=0.14;exitY=1;entryX=0.5;entryY=-0.01;rounded=0;" parent="njphzuGPGMFV0OTPNxyu-111" source="njphzuGPGMFV0OTPNxyu-50" target="njphzuGPGMFV0OTPNxyu-51" edge="1">
          <mxGeometry relative="1" as="geometry">
            <Array as="points">
              <mxPoint x="1384" y="2016" />
            </Array>
          </mxGeometry>
        </mxCell>
        <mxCell id="njphzuGPGMFV0OTPNxyu-108" value="否" style="curved=1;startArrow=none;endArrow=block;exitX=0.81;exitY=1;entryX=0.5;entryY=-0.01;rounded=0;" parent="njphzuGPGMFV0OTPNxyu-111" source="njphzuGPGMFV0OTPNxyu-50" target="njphzuGPGMFV0OTPNxyu-52" edge="1">
          <mxGeometry relative="1" as="geometry">
            <Array as="points">
              <mxPoint x="1589" y="2016" />
            </Array>
          </mxGeometry>
        </mxCell>
        <mxCell id="njphzuGPGMFV0OTPNxyu-109" value="5. 退出" style="curved=1;startArrow=none;endArrow=block;exitX=1;exitY=0.56;entryX=0.5;entryY=-0.01;rounded=0;" parent="njphzuGPGMFV0OTPNxyu-111" source="njphzuGPGMFV0OTPNxyu-11" target="njphzuGPGMFV0OTPNxyu-53" edge="1">
          <mxGeometry relative="1" as="geometry">
            <Array as="points">
              <mxPoint x="1627" y="1011" />
            </Array>
          </mxGeometry>
        </mxCell>
        <mxCell id="njphzuGPGMFV0OTPNxyu-110" value="" style="curved=1;startArrow=none;endArrow=block;exitX=0.5;exitY=0.99;entryX=0.5;entryY=-0.01;rounded=0;" parent="njphzuGPGMFV0OTPNxyu-111" source="njphzuGPGMFV0OTPNxyu-53" target="njphzuGPGMFV0OTPNxyu-54" edge="1">
          <mxGeometry relative="1" as="geometry">
            <Array as="points" />
          </mxGeometry>
        </mxCell>
        <mxCell id="UJiWy-4iRqF157eLUmJe-1" value="开始优化" style="rounded=1;whiteSpace=wrap;arcSize=50;strokeWidth=2;" vertex="1" parent="1">
          <mxGeometry x="319" y="2466" width="89" height="39" as="geometry" />
        </mxCell>
        <mxCell id="UJiWy-4iRqF157eLUmJe-2" value="初始化PSO参数" style="whiteSpace=wrap;strokeWidth=2;" vertex="1" parent="1">
          <mxGeometry x="280" y="2562" width="167" height="54" as="geometry" />
        </mxCell>
        <mxCell id="UJiWy-4iRqF157eLUmJe-3" value="定义参数范围" style="whiteSpace=wrap;strokeWidth=2;" vertex="1" parent="1">
          <mxGeometry x="285" y="2666" width="156" height="54" as="geometry" />
        </mxCell>
        <mxCell id="UJiWy-4iRqF157eLUmJe-4" value="设置粒子群参数" style="whiteSpace=wrap;strokeWidth=2;" vertex="1" parent="1">
          <mxGeometry x="277" y="2770" width="172" height="54" as="geometry" />
        </mxCell>
        <mxCell id="UJiWy-4iRqF157eLUmJe-5" value="生成初始粒子群" style="whiteSpace=wrap;strokeWidth=2;" vertex="1" parent="1">
          <mxGeometry x="277" y="2874" width="172" height="54" as="geometry" />
        </mxCell>
        <mxCell id="UJiWy-4iRqF157eLUmJe-6" value="迭代次数未满?" style="rhombus;strokeWidth=2;whiteSpace=wrap;" vertex="1" parent="1">
          <mxGeometry x="285" y="2978" width="156" height="156" as="geometry" />
        </mxCell>
        <mxCell id="UJiWy-4iRqF157eLUmJe-7" value="更新粒子位置" style="whiteSpace=wrap;strokeWidth=2;" vertex="1" parent="1">
          <mxGeometry x="178" y="3206" width="156" height="54" as="geometry" />
        </mxCell>
        <mxCell id="UJiWy-4iRqF157eLUmJe-8" value="解析粒子参数" style="whiteSpace=wrap;strokeWidth=2;" vertex="1" parent="1">
          <mxGeometry x="178" y="3310" width="156" height="54" as="geometry" />
        </mxCell>
        <mxCell id="UJiWy-4iRqF157eLUmJe-9" value="生成流压序列" style="whiteSpace=wrap;strokeWidth=2;" vertex="1" parent="1">
          <mxGeometry x="178" y="3414" width="156" height="54" as="geometry" />
        </mxCell>
        <mxCell id="UJiWy-4iRqF157eLUmJe-10" value="加载预测模型" style="whiteSpace=wrap;strokeWidth=2;" vertex="1" parent="1">
          <mxGeometry x="178" y="3518" width="156" height="54" as="geometry" />
        </mxCell>
        <mxCell id="UJiWy-4iRqF157eLUmJe-11" value="执行BP预测" style="whiteSpace=wrap;strokeWidth=2;" vertex="1" parent="1">
          <mxGeometry x="185" y="3622" width="142" height="54" as="geometry" />
        </mxCell>
        <mxCell id="UJiWy-4iRqF157eLUmJe-12" value="执行LSTM滚动预测" style="whiteSpace=wrap;strokeWidth=2;" vertex="1" parent="1">
          <mxGeometry x="160" y="3726" width="192" height="54" as="geometry" />
        </mxCell>
        <mxCell id="UJiWy-4iRqF157eLUmJe-13" value="计算总产量" style="whiteSpace=wrap;strokeWidth=2;" vertex="1" parent="1">
          <mxGeometry x="186" y="3830" width="140" height="54" as="geometry" />
        </mxCell>
        <mxCell id="UJiWy-4iRqF157eLUmJe-14" value="应用约束条件" style="whiteSpace=wrap;strokeWidth=2;" vertex="1" parent="1">
          <mxGeometry x="178" y="3934" width="156" height="54" as="geometry" />
        </mxCell>
        <mxCell id="UJiWy-4iRqF157eLUmJe-15" value="更新粒子最佳值" style="whiteSpace=wrap;strokeWidth=2;" vertex="1" parent="1">
          <mxGeometry x="277" y="4038" width="172" height="54" as="geometry" />
        </mxCell>
        <mxCell id="UJiWy-4iRqF157eLUmJe-16" value="确定全局最优解" style="whiteSpace=wrap;strokeWidth=2;" vertex="1" parent="1">
          <mxGeometry x="384" y="3206" width="172" height="54" as="geometry" />
        </mxCell>
        <mxCell id="UJiWy-4iRqF157eLUmJe-17" value="保存优化结果" style="whiteSpace=wrap;strokeWidth=2;" vertex="1" parent="1">
          <mxGeometry x="392" y="3310" width="156" height="54" as="geometry" />
        </mxCell>
        <mxCell id="UJiWy-4iRqF157eLUmJe-18" value="结束优化" style="rounded=1;whiteSpace=wrap;arcSize=50;strokeWidth=2;" vertex="1" parent="1">
          <mxGeometry x="426" y="3422" width="89" height="39" as="geometry" />
        </mxCell>
        <mxCell id="UJiWy-4iRqF157eLUmJe-21" value="" style="curved=1;startArrow=none;endArrow=block;exitX=0.5;exitY=0.99;entryX=0.5;entryY=0;rounded=0;" edge="1" parent="1" source="UJiWy-4iRqF157eLUmJe-1" target="UJiWy-4iRqF157eLUmJe-2">
          <mxGeometry relative="1" as="geometry">
            <Array as="points" />
          </mxGeometry>
        </mxCell>
        <mxCell id="UJiWy-4iRqF157eLUmJe-22" value="" style="curved=1;startArrow=none;endArrow=block;exitX=0.5;exitY=1;entryX=0.5;entryY=0;rounded=0;" edge="1" parent="1" source="UJiWy-4iRqF157eLUmJe-2" target="UJiWy-4iRqF157eLUmJe-3">
          <mxGeometry relative="1" as="geometry">
            <Array as="points" />
          </mxGeometry>
        </mxCell>
        <mxCell id="UJiWy-4iRqF157eLUmJe-23" value="" style="curved=1;startArrow=none;endArrow=block;exitX=0.5;exitY=1;entryX=0.5;entryY=0;rounded=0;" edge="1" parent="1" source="UJiWy-4iRqF157eLUmJe-3" target="UJiWy-4iRqF157eLUmJe-4">
          <mxGeometry relative="1" as="geometry">
            <Array as="points" />
          </mxGeometry>
        </mxCell>
        <mxCell id="UJiWy-4iRqF157eLUmJe-24" value="" style="curved=1;startArrow=none;endArrow=block;exitX=0.5;exitY=1;entryX=0.5;entryY=0;rounded=0;" edge="1" parent="1" source="UJiWy-4iRqF157eLUmJe-4" target="UJiWy-4iRqF157eLUmJe-5">
          <mxGeometry relative="1" as="geometry">
            <Array as="points" />
          </mxGeometry>
        </mxCell>
        <mxCell id="UJiWy-4iRqF157eLUmJe-25" value="" style="curved=1;startArrow=none;endArrow=block;exitX=0.5;exitY=1;entryX=0.5;entryY=0;rounded=0;" edge="1" parent="1" source="UJiWy-4iRqF157eLUmJe-5" target="UJiWy-4iRqF157eLUmJe-6">
          <mxGeometry relative="1" as="geometry">
            <Array as="points" />
          </mxGeometry>
        </mxCell>
        <mxCell id="UJiWy-4iRqF157eLUmJe-26" value="是" style="curved=1;startArrow=none;endArrow=block;exitX=0.03;exitY=1;entryX=0.5;entryY=0.01;rounded=0;" edge="1" parent="1" source="UJiWy-4iRqF157eLUmJe-6" target="UJiWy-4iRqF157eLUmJe-7">
          <mxGeometry relative="1" as="geometry">
            <Array as="points">
              <mxPoint x="256" y="3170" />
            </Array>
          </mxGeometry>
        </mxCell>
        <mxCell id="UJiWy-4iRqF157eLUmJe-27" value="" style="curved=1;startArrow=none;endArrow=block;exitX=0.5;exitY=1.01;entryX=0.5;entryY=0.01;rounded=0;" edge="1" parent="1" source="UJiWy-4iRqF157eLUmJe-7" target="UJiWy-4iRqF157eLUmJe-8">
          <mxGeometry relative="1" as="geometry">
            <Array as="points" />
          </mxGeometry>
        </mxCell>
        <mxCell id="UJiWy-4iRqF157eLUmJe-28" value="" style="curved=1;startArrow=none;endArrow=block;exitX=0.5;exitY=1.01;entryX=0.5;entryY=0.01;rounded=0;" edge="1" parent="1" source="UJiWy-4iRqF157eLUmJe-8" target="UJiWy-4iRqF157eLUmJe-9">
          <mxGeometry relative="1" as="geometry">
            <Array as="points" />
          </mxGeometry>
        </mxCell>
        <mxCell id="UJiWy-4iRqF157eLUmJe-29" value="" style="curved=1;startArrow=none;endArrow=block;exitX=0.5;exitY=1.01;entryX=0.5;entryY=0.01;rounded=0;" edge="1" parent="1" source="UJiWy-4iRqF157eLUmJe-9" target="UJiWy-4iRqF157eLUmJe-10">
          <mxGeometry relative="1" as="geometry">
            <Array as="points" />
          </mxGeometry>
        </mxCell>
        <mxCell id="UJiWy-4iRqF157eLUmJe-30" value="" style="curved=1;startArrow=none;endArrow=block;exitX=0.5;exitY=1.01;entryX=0.5;entryY=0.01;rounded=0;" edge="1" parent="1" source="UJiWy-4iRqF157eLUmJe-10" target="UJiWy-4iRqF157eLUmJe-11">
          <mxGeometry relative="1" as="geometry">
            <Array as="points" />
          </mxGeometry>
        </mxCell>
        <mxCell id="UJiWy-4iRqF157eLUmJe-31" value="" style="curved=1;startArrow=none;endArrow=block;exitX=0.5;exitY=1.01;entryX=0.5;entryY=0.01;rounded=0;" edge="1" parent="1" source="UJiWy-4iRqF157eLUmJe-11" target="UJiWy-4iRqF157eLUmJe-12">
          <mxGeometry relative="1" as="geometry">
            <Array as="points" />
          </mxGeometry>
        </mxCell>
        <mxCell id="UJiWy-4iRqF157eLUmJe-32" value="" style="curved=1;startArrow=none;endArrow=block;exitX=0.5;exitY=1.01;entryX=0.5;entryY=0.01;rounded=0;" edge="1" parent="1" source="UJiWy-4iRqF157eLUmJe-12" target="UJiWy-4iRqF157eLUmJe-13">
          <mxGeometry relative="1" as="geometry">
            <Array as="points" />
          </mxGeometry>
        </mxCell>
        <mxCell id="UJiWy-4iRqF157eLUmJe-33" value="" style="curved=1;startArrow=none;endArrow=block;exitX=0.5;exitY=1.01;entryX=0.5;entryY=0.01;rounded=0;" edge="1" parent="1" source="UJiWy-4iRqF157eLUmJe-13" target="UJiWy-4iRqF157eLUmJe-14">
          <mxGeometry relative="1" as="geometry">
            <Array as="points" />
          </mxGeometry>
        </mxCell>
        <mxCell id="UJiWy-4iRqF157eLUmJe-34" value="" style="curved=1;startArrow=none;endArrow=block;exitX=0.5;exitY=1.01;entryX=0.18;entryY=0.01;rounded=0;" edge="1" parent="1" source="UJiWy-4iRqF157eLUmJe-14" target="UJiWy-4iRqF157eLUmJe-15">
          <mxGeometry relative="1" as="geometry">
            <Array as="points">
              <mxPoint x="256" y="4013" />
            </Array>
          </mxGeometry>
        </mxCell>
        <mxCell id="UJiWy-4iRqF157eLUmJe-35" value="" style="curved=1;startArrow=none;endArrow=block;exitX=1;exitY=0.15;entryX=1;entryY=0.75;rounded=0;" edge="1" parent="1" source="UJiWy-4iRqF157eLUmJe-15" target="UJiWy-4iRqF157eLUmJe-6">
          <mxGeometry relative="1" as="geometry">
            <Array as="points">
              <mxPoint x="591" y="4013" />
              <mxPoint x="591" y="3170" />
            </Array>
          </mxGeometry>
        </mxCell>
        <mxCell id="UJiWy-4iRqF157eLUmJe-36" value="否" style="curved=1;startArrow=none;endArrow=block;exitX=0.97;exitY=1;entryX=0.5;entryY=0.01;rounded=0;" edge="1" parent="1" source="UJiWy-4iRqF157eLUmJe-6" target="UJiWy-4iRqF157eLUmJe-16">
          <mxGeometry relative="1" as="geometry">
            <Array as="points">
              <mxPoint x="470" y="3170" />
            </Array>
          </mxGeometry>
        </mxCell>
        <mxCell id="UJiWy-4iRqF157eLUmJe-37" value="" style="curved=1;startArrow=none;endArrow=block;exitX=0.5;exitY=1.01;entryX=0.5;entryY=0.01;rounded=0;" edge="1" parent="1" source="UJiWy-4iRqF157eLUmJe-16" target="UJiWy-4iRqF157eLUmJe-17">
          <mxGeometry relative="1" as="geometry">
            <Array as="points" />
          </mxGeometry>
        </mxCell>
        <mxCell id="UJiWy-4iRqF157eLUmJe-38" value="" style="curved=1;startArrow=none;endArrow=block;exitX=0.5;exitY=1.01;entryX=0.5;entryY=0;rounded=0;" edge="1" parent="1" source="UJiWy-4iRqF157eLUmJe-17" target="UJiWy-4iRqF157eLUmJe-18">
          <mxGeometry relative="1" as="geometry">
            <Array as="points" />
          </mxGeometry>
        </mxCell>
      </root>
    </mxGraphModel>
  </diagram>
</mxfile>
